Coordinates
version=1
nRows=5
nColumns=42
inDegrees=yes

Units are S.I. units (second, meters, Newtons, ...)
If the header above contains a line with 'inDegrees', this indicates whether rotational values are in degrees (yes) or radians (no).

endheader
time	pelvis_tilt	pelvis_list	pelvis_rotation	pelvis_tx	pelvis_ty	pelvis_tz	hip_flexion_r	hip_adduction_r	hip_rotation_r	knee_angle_r	knee_adduction_r	knee_angle_r_beta	ankle_angle_r	subtalar_angle_r	mtp_angle_r	hip_flexion_l	hip_adduction_l	hip_rotation_l	knee_angle_l	knee_adduction_l	knee_angle_l_beta	ankle_angle_l	subtalar_angle_l	mtp_angle_l	lumbar_extension	lumbar_bending	lumbar_rotation	arm_flex_r	arm_add_r	arm_rot_r	elbow_flex_r	pro_sup_r	wrist_flex_r	wrist_dev_r	arm_flex_l	arm_add_l	arm_rot_l	elbow_flex_l	pro_sup_l	wrist_flex_l	wrist_dev_l
      1.27000000	      1.78232055	      6.14917164	      5.91564845	     -1.04222175	      0.98763225	      0.31906696	     15.52682666	     -6.24103879	    -26.51102478	     13.36400250	     -3.77417239	      0.23324584	     -1.57335990	     15.44706947	     -7.82259194	    -17.65761310	      4.10677310	     -2.72045452	     10.30307990	     -1.34894534	      0.17982267	      8.10929471	     13.64792496	     -7.82259194	    -21.73227328	     -7.71071567	     -8.92153742	    -11.28890399	     -9.57892128	     15.71911968	     35.91631394	     90.00000001	      0.00000000	      0.00000000	     16.93184770	    -19.13639779	      9.82904664	     48.13473180	     90.00000001	      0.00000000	      0.00000000
      1.28000000	      1.78474794	      6.20517216	      5.99532683	     -1.03476256	      0.98937379	      0.32085957	     14.76222768	     -6.12866862	    -26.71189908	     12.89936289	     -3.64683431	      0.22513635	     -1.22152077	     15.83092162	     -7.81701486	    -17.14490909	      3.72362275	     -2.67826050	     12.06468668	     -0.96172618	      0.21056851	      7.01229371	     12.90751508	     -7.81701486	    -21.84668540	     -7.78751420	     -8.97349530	    -10.76388586	     -9.45171294	     15.57793461	     35.84487846	     90.00000001	      0.00000000	      0.00000000	     16.44913665	    -19.22953006	     10.11635348	     47.44012065	     90.00000001	      0.00000000	      0.00000000
      1.29000000	      1.84515774	      6.20029049	      6.05144602	     -1.02738660	      0.99117465	      0.32285631	     13.92949125	     -5.89450924	    -27.06799331	     12.34646557	     -3.59527541	      0.21548648	     -1.01020643	     16.49542529	     -7.80766835	    -16.57790114	      3.17968129	     -2.56373502	     14.03430402	     -0.38572710	      0.24494481	      5.99646425	     11.96039825	     -7.80766835	    -22.01395424	     -7.81248359	     -8.96828171	    -10.18880429	     -9.33647037	     15.40661185	     35.79806930	     90.00000001	      0.00000000	      0.00000000	     15.97698297	    -19.36338120	     10.44995724	     46.78582151	     90.00000001	      0.00000000	      0.00000000
      1.30000000	      1.90318184	      6.35158726	      6.13698937	     -1.02006026	      0.99291758	      0.32454772	     13.05681212	     -5.91915265	    -27.27828325	     11.84658085	     -3.37156783	      0.20676184	     -0.61215471	     16.85897585	     -7.80230685	    -15.91680134	      2.85790838	     -2.45143258	     16.14962477	      0.04635472	      0.28186413	      4.75391990	     11.24954260	     -7.80230685	    -22.18858385	     -7.97704322	     -9.03391852	     -9.61441087	     -9.26072019	     15.36678456	     35.82250552	     90.00000001	      0.00000000	      0.00000000	     15.44421000	    -19.49403316	     10.62573863	     46.21182433	     90.00000001	      0.00000000	      0.00000000
      1.31000000	      1.98995571	      6.43150894	      6.22180240	     -1.01282488	      0.99461521	      0.32639842	     12.15662236	     -5.82311430	    -27.56663667	     11.28415660	     -3.20080005	      0.19694569	     -0.34846370	     17.33366857	     -7.79622140	    -15.13415793	      2.38841335	     -2.32765665	     18.51400411	      0.58852403	      0.32313033	      3.59152077	     10.37987632	     -7.79622140	    -22.37575678	     -8.09088165	     -9.06218099	     -9.01055827	     -9.20370056	     15.36520421	     35.85677438	     90.00000001	      0.00000000	      0.00000000	     14.89109369	    -19.64423203	     10.78110153	     45.69658695	     90.00000001	      0.00000000	      0.00000000
